<?xml version="1.0" encoding="utf-8"?>
<?xml-stylesheet type="text/xsl" href="rss1.xsl"?>
<rss version="2.0" xmlns:atom="http://www.w3.org/2005/Atom" xmlns:content="http://purl.org/rss/1.0/modules/content/" xmlns:dc="http://purl.org/dc/elements/1.1/" xmlns:media="http://search.yahoo.com/mrss/">
<channel>
 <title>Getty</title>
 <link>http://www.gettyimg.com/</link>
 <atom:link href="http://www.gettyimg.com/" rel="self" type="application/rss+xml" />

 
                <item>
                <title><![CDATA[【Interviews / TV shows / Others】FEED - Hailee Steinfeld (The Kelly Clarkson Show - S1E40) ( Nov 1, 2019, BRAVOHD-E)]]></title>
                <link><![CDATA[https://sharemania.us/threads/hailee-steinfeld-the-kelly-clarkson-show-s1e40-nov-1-2019-bravohd-e.251165/]]></link>
                <description><![CDATA[<article>
<blockquote class="messageText SelectQuoteContainer ugc baseHtml">
<img src="https://img97.pixhost.to/images/139/498652177_hailee-steinfeld-the-kelly-clarkson-show-s1e40-nov-1-2019-bravohd-e-mpg.jpg" class="bbCodeImage LbImage" alt="[​IMG]" data-url="https://img97.pixhost.to/images/139/498652177_hailee-steinfeld-the-kelly-clarkson-show-s1e40-nov-1-2019-bravohd-e-mpg.jpg" style=""> <br>
<img src="https://img97.pixhost.to/images/139/498652176_hailee-steinfeld-the-kelly-clarkson-show-s1e40-nov-1-2019-bravohd-e-mpg.jpg" class="bbCodeImage LbImage" alt="[​IMG]" data-url="https://img97.pixhost.to/images/139/498652176_hailee-steinfeld-the-kelly-clarkson-show-s1e40-nov-1-2019-bravohd-e-mpg.jpg" style=""> <br>
<div class="ToggleTriggerAnchor bbCodeSpoilerContainer">
<button type="button" class="button bbCodeSpoilerButton ToggleTrigger Tooltip JsOnly" data-target="> .SpoilerTarget"><span>Spoiler: <span class="SpoilerTitle">MediaInfo</span></span></button>
<div class="SpoilerTarget bbCodeSpoilerText">General<br>
Complete name : Hailee Steinfeld (The Kelly Clarkson Show - S1E40) ( Nov 1, 2019, BRAVOHD-E).mpg<br>
Format : MPEG-PS<br>
File size : 5.21 GiB<br>
Duration : 45 min 58 s<br>
Overall bit rate mode : Variable<br>
Overall bit rate : 16.2 Mb/s<br>
Frame rate : 29.970 FPS<br>
Movie name : Watch What Happens<br>
Law rating : TV-G<br>
<br>
Video<br>
ID : 224 (0xE0)<br>
Format : MPEG Video<br>
Format version : Version 2<br>
Format profile : Main@High<br>
Format settings : BVOP<br>
Format settings, BVOP : Yes<br>
Format settings, Matrix : Default<br>
Format settings, GOP : M=3, N=15<br>
Format settings, picture st : Frame<br>
Duration : 45 min 58 s<br>
Bit rate mode : Variable<br>
Bit rate : 15.5 Mb/s<br>
Maximum bit rate : 16.0 Mb/s<br>
Width : 1 920 pixels<br>
Height : 1 080 pixels<br>
Display aspect ratio : 16:9<br>
Frame rate : 29.970 (30000/1001) FPS<br>
Color space : YUV<br>
Chroma subsampling : 4:2:0<br>
Bit depth : 8 bits<br>
Scan type : Interlaced<br>
Scan order : Top Field First<br>
Compression mode : Lossy<br>
Bits/(Pixel*Frame) : 0.250<br>
Time code of first frame : 00:00:00;00<br>
Time code source : Group of pictures header<br>
GOP, Open/Closed : Open<br>
GOP, Open/Closed of first f : Closed<br>
Stream size : 4.99 GiB (96%)<br>
Color primaries : BT.709<br>
Transfer characteristics : BT.709<br>
Matrix coefficients : BT.709<br>
<br>
Audio<br>
ID : 189 (0xBD)-128 (0x80)<br>
Format : AC-3<br>
Format/Info : Audio Coding 3<br>
Commercial name : Dolby Digital<br>
Muxing mode : DVD-Video<br>
Duration : 45 min 58 s<br>
Bit rate mode : Constant<br>
Bit rate : 384 kb/s<br>
Channel(s) : 6 channels<br>
Channel layout : L R C LFE Ls Rs<br>
Sampling rate : 48.0 kHz<br>
Frame rate : 31.250 FPS (1536 SPF)<br>
Compression mode : Lossy<br>
Delay relative to video : 12 ms<br>
Stream size : 126 MiB (2%)<br>
Service kind : Complete Main<br>
AC3_metadata cmixlev : -3.0 dB<br>
surmixlev : -3 dB<br>
<br>
Text<br>
ID : 224 (0xE0)-CC1<br>
Format : EIA-608<br>
Muxing mode : A/53 / DTVCC Transport<br>
Muxing mode, more info : Muxed in Video #1<br>
Duration : 45 min 58 s<br>
End time : 45 min 57 s<br>
Bit rate mode : Constant<br>
Stream size : 0.00 Byte (0%)<br>
Type of the first event : RollUp</div>
</div><b><span style="color: #00b300">G</span><span style="color: #0000ff">Drive</span></b><br>
<div class="bbCodeBlock bbCodeVfcHH HiddenContent">
<div class="attribution type">Hidden Content:</div>
<blockquote>You must reply before you can see the hidden data contained here.</blockquote>
</div>
<div class="messageTextEndMarker">&nbsp;</div>
</blockquote>
</article>]]></description>
                <author><![CDATA[edgar]]></author>
                </item>

                
                <item>
                <title><![CDATA[【Actresses】Blanca Lewin - En la Cama (2005)720p]]></title>
                <link><![CDATA[https://sharemania.us/threads/blanca-lewin-en-la-cama-2005-720p.251166/]]></link>
                <description><![CDATA[<article>
<blockquote class="messageText SelectQuoteContainer ugc baseHtml">
Blanca Lewin - En la Cama (2005)720p<br>
<br>
<a href="https://imgbox.com/R6Cs85b9" target="_blank" class="externalLink" rel="nofollow"><img src="https://thumbs2.imgbox.com/78/6b/R6Cs85b9_t.jpg" class="bbCodeImage LbImage" alt="[​IMG]" data-url="https://thumbs2.imgbox.com/78/6b/R6Cs85b9_t.jpg"></a> <a href="https://imgbox.com/OZVuPiFz" target="_blank" class="externalLink" rel="nofollow"><img src="https://thumbs2.imgbox.com/c6/83/OZVuPiFz_t.jpg" class="bbCodeImage LbImage" alt="[​IMG]" data-url="https://thumbs2.imgbox.com/c6/83/OZVuPiFz_t.jpg"></a> <a href="https://imgbox.com/C3DUh5Hd" target="_blank" class="externalLink" rel="nofollow"><img src="https://thumbs2.imgbox.com/b0/75/C3DUh5Hd_t.jpg" class="bbCodeImage LbImage" alt="[​IMG]" data-url="https://thumbs2.imgbox.com/b0/75/C3DUh5Hd_t.jpg"></a> <a href="https://imgbox.com/CnyUzKrp" target="_blank" class="externalLink" rel="nofollow"><img src="https://thumbs2.imgbox.com/a1/67/CnyUzKrp_t.jpg" class="bbCodeImage LbImage" alt="[​IMG]" data-url="https://thumbs2.imgbox.com/a1/67/CnyUzKrp_t.jpg"></a> <a href="https://imgbox.com/TOJFh26M" target="_blank" class="externalLink" rel="nofollow"><img src="https://thumbs2.imgbox.com/3a/bf/TOJFh26M_t.jpg" class="bbCodeImage LbImage" alt="[​IMG]" data-url="https://thumbs2.imgbox.com/3a/bf/TOJFh26M_t.jpg"></a> <a href="https://imgbox.com/lG9HlIPf" target="_blank" class="externalLink" rel="nofollow"><img src="https://thumbs2.imgbox.com/02/25/lG9HlIPf_t.jpg" class="bbCodeImage LbImage" alt="[​IMG]" data-url="https://thumbs2.imgbox.com/02/25/lG9HlIPf_t.jpg"></a><br>
Duration: 0:09:02 Resolution: 1280x720 Format: mp4 Size: 205.57 MB<br>
<a href="https://filejoker.net/22bo1ntanbq6" target="_blank" class="externalLink" rel="nofollow">https://filejoker.net/22bo1ntanbq6</a>
<div class="messageTextEndMarker">&nbsp;</div>
</blockquote>
</article>]]></description>
                <author><![CDATA[piqeros]]></author>
                </item>

                
                <item>
                <title><![CDATA[【Requests】[REQ AUD] - The Police Synchronicy ATMOS]]></title>
                <link><![CDATA[https://sharemania.us/threads/the-police-synchronicy-atmos.251164/]]></link>
                <description><![CDATA[<article>
<blockquote class="messageText SelectQuoteContainer ugc baseHtml">
Just released on 7/26 streaming.<br>
<br>
Thanks You!
<div class="messageTextEndMarker">&nbsp;</div>
</blockquote>
</article>]]></description>
                <author><![CDATA[mcvoss]]></author>
                </item>

                </channel></rss>